<svg viewBox="-10 0 271.44 175.89" xml:space="preserve" xmlns="http://www.w3.org/2000/svg">
                <path d="m24.631 164c0.1674 0.1906 1.1758 0.623 1.3869 0.4661 0.3984-0.2959 0.57 3e-3 0.9763 0.0822 0.9242 0.1805 1.038-0.4219 1.9708 0.0914 1.5161 0.8341 2.5543 0.4977 4.1242 0.3473 0.6333-0.0607 1.028 0.3456 1.5876 0.1096 0.2079-0.0877 0.4197 0.0162 0.6113-0.0639 0.2601-0.1089 0.4942-0.4096 0.7938-0.5301 0.6002-0.3316 0.4843-1.33 0.511-1.9191 0.0332-0.7346 0.7468-0.5393 1.0949-0.8499 0.3969-0.354 0.6261-0.9433 1.1497-1.0235 0.4266-0.0654 1.3258-0.2507 1.7336-0.1462 0.3585 0.0918 0.1789 1.9789 0.7299 2.175 0.1586 0.0565 1.0112-0.8908 1.3687-1.0327 0.1464-0.058 1.0606-0.6235 1.1131-0.7494 0.1596-0.383 0.2704-0.43 0.6387-0.2559 0.3486 0.1649 0.6721-0.3438 1.1953-0.2284 0.8914 0.1966 1.5475 0.3129 2.4909 0.0914 0.3037 0.1338 0.733-0.1463 1.0493-0.1463 0 0.6935 0.9226 1.1222 1.4964 0.9687 0.9567-0.2558 0.4054 0.4516 1.1679 0.5209l1.3048 0.1188c0.4233 0.0384 1.0432 0.0932 1.0766-0.53 0.1018-1.8988 2.8898-1.0601 4.106-1.0601 0.4903 0 0.5122 0.4295 0.8576 0.4295 0.3472 0 1.0247-2.1289 1.7793-2.2115 0.3413 0.0267 1.4885-0.0435 1.7427-0.2742 0.1774-0.1609-0.0909-0.3107 0.2555-0.3107 0.6242 0 0.5446-0.3865 1.1679-0.2833 1.4356 0.2379 0.4875-1.148 1.2044-1.6267 0.0967-0.0645 0.4382 0.3247 0.5566 0.4295 0.2418 0.2143 0.3166 0.2447 0.2555 0.6032-0.0459 0.2691 0.2321 0.0483 0.3102 0.1553 0.2233 0.3061-0.1981 0.5772 0.4562 0.6123 0.199 0.0107 0.4 0.3813 0.6022 0.4661 0.5658 0.2372 0.7532-0.3705 1.0949-0.6854 0.2791-0.2571 0.385 0.023 0.6935-0.3838l0.3166-0.3455c0.0493 0.1677-0.0511 0.4011 0.1122 0.4917 0.3505 0.1943 0.2068-0.183 0.5292 0.1736 0.1487 0.1644 0.4144-0.0202 0.4968 0.15l0.443-0.4059c0.4261-0.2025 0.779-0.1089 0.6843-0.6762-0.062-0.3713-0.2489-0.4722-0.3649-0.7951-0.0549-0.1526 0.2249-0.598 0.0821-0.923-0.1457-0.3313-0.3485-0.6248-0.2464-1.0235 0.0888-0.347 0.3645-0.2643 0.5201-0.5026 0.2638-0.4037 0.2967-1.061 1.0037-1.1332 0.1023-0.0104 0.7074 0.5213 1.1953 0.4843 0.4953-0.0375 0.1755 0.4272 0.6843 0.2467 0.1175-0.0416 0.7599-0.1105 0.7755 0.0275 0.0345 0.3035 0.1257 0.4507 0.4015 0.6031 0.0247 0.0137 0.5363 1.5023 0.9672 0.4113 0.1405-0.3557-0.2799-0.6658 0.1551-0.9505 0.2697-0.1766 0.4471-0.3325 0.5657-0.6305 0.2869-0.7211 0.4516 0.1882 0.9854-0.2102 0.0717-0.0536 0.2813-0.2972 0.3102-0.3838 0.0893-0.2677 0.1124-0.253 0.2555-0.5392 0.1376 0.0214 0.6146-0.2952 0.6478-0.4295l0.3194 0.0913c0.2441 0.0697 0.0456 0.3641 0.0456 0.5758 0 0.2084 0.0809 0.2467 0.2829 0.2833 0.2414 0.0437 0.5248 0.402 0.7117 0.5392 0.3117 0.2286 0.4204 0.6201 0.1095 0.9321 0.0419 0.2667 0.1475 0.5059 0.2281 0.7494 0.1019 0.3074 0.0915 0.2879 0.3193 0.0731 0.1227-0.1158 0.4397-0.2039 0.6022-0.2285 0.4509-0.0683 0.4166-0.5253 1.0858-0.3473 0.2904 0.0773 0.3291 0.5582 0.6752 0.3747 0.1743-0.0923 0.4762-0.5898 0.5475-0.7768 0.0585-0.1537 1.2196-0.6183 1.3321-0.2924 0.2265 0.6564 0.4058 0.1758 0.6752 0.5666 0.1362 0.1977 0.3523-0.1597 0.6296-0.0457 0.1442 0.0592 0.2458 0.3809 0.4379 0.2376 0.3681-0.2748 0.3976-0.3455 0.3468-0.7676-0.0281-0.2332 0.5418-0.7841 0.7208-0.923 0.0836-0.0104 0.3088-0.1548 0.3649-0.0914 0.1609 0.1815 0.2534 0.1695 0.4106-0.0183 0.1964-0.2344 0.4836 0.0111 0.6935-0.1828 0.1143-0.1057 0.4973-0.5319 0.6843-0.4204 0 0.122 0.0821 0.3338 0.0821 0.4935l9e-3 9e-3c0.1902 0 0.281 0.054 0.4289 0.0914 3e-3 0.0117 6e-3 0.0157 9e-3 0.0274 0.1869 0.0262 0.3558 0.3192 0.2829 0.4843-0.2183 0.4937-0.1263 0.8679 0.2828 1.2429 0.5268 0.4827-0.1251 1.0633 0.1916 1.4713 0.2165 0.4336 0.3657 1.4633 0.7756 1.6084 0.7889 0.2792 0.7117 0.2107 0.7117 1.0601 0 0.3948 0.184 1.0122 0.4471 1.316 0.586 0.6763 1.9799-0.9956 1.9799 0.1371 0 0.8433 0.5395 0.4745 0.9125 0.1279 0.1894-0.1761 0.5365 0.5076 0.9763 0.3107 0.4311-0.1931 1.3656-0.0193 1.396 0.5483 0.0202 0.3769-0.103 0.4649 0.2555 0.7129 0.3541 0.2451 0.1497 0.4936 0.1824 0.859 0.1572 0.0486 0.6095 0.064 0.6479 0.201 0.0859 0.3068 1.5828 1.5547 1.9617 1.5719 0.6652 0.0301 0.1775-1.1092 0.5292-1.6176 0.2864-0.4138-0.0186-0.8919 0.1825-1.3068 0.0367-0.0756 0.3397 0.084 0.4379 0.0914 0.3471 0.0262 0.7298-0.0546 0.9855 0.2011 0.1963 0.1963 0.5024 0.1959 0.7573 0.2467 0.386 0.0768 0.5256-0.4531 0.8029-0.7311 0.2745-0.275 0.532-0.1645 0.9307-0.1645 0 0.8814 0.9983 0.7734 1.3869 1.0144 0.8374 0.5196 1.0365 0.7047 2.1077 0.7859 0.5711 0.4022 1.0113 0.5357 1.688 0.4844 1.0704-0.0813 0.8956 0.8748 1.5602 1.3708 0.0998 0.0745 0.9262 0.4051 1.0402 0.329 0.3819-0.2548 0.3669-0.3747 0.8668-0.3747 0 0.0205 9e-3 0.0252 9e-3 0.0457 0.0259 8e-3 -0.0274 0.3202-0.0274 0.3747 0 0.3308 0.2973 0.4142 0.5293 0.5483 0.4768 0.2755 0.2395 0.6696 0.9215 0.4752 0.1816-0.0518 0.151 0.2438 0.292 0.3016 0.1441 0.059 0.394-0.0356 0.5748 9e-3 0 0.6981 0.1895 0.743 0.9216 0.987 0.9203 0.6996 1.0423 1.4792 1.2956 2.504 0.3943 0.0975 1.1398 7e-3 1.4599 0.2102 0.2428 0.1541 0.4742 0.4025 0.7756 0.3747 0.3703-0.0341 0.2214-0.4478 0.4744-0.4478 0.3311 0 1.2469 0.3387 1.4964 0.2102 0.1538-0.0793 0.0747-0.2857 0.2646-0.3473 0.6861-0.2224 0.9381-0.5173 1.5694-0.4935 0.5187 0.0196 0.6738-0.2165 1.0949-0.3016l1.0402-0.2102c0.0702-0.0173 0.0403-0.4527 0.1277-0.53 0.1169-0.1036 0.7025 0.1397 0.8759-0.1097 0.2313-0.3329 0.7486-0.3282 1.0858-0.5757 0.5187 0.0677 0.9447-0.1158 1.4508 0.1005 0.6511 0.2782 0.8458 0.9451 1.0219-0.3381 0.0657-0.4785 0.6048-1.3095 1.0584-1.4896 0.4154-0.1648 0.6688-0.0108 0.8668 0.3107 0.1991 0.3231 1.259 0.6508 1.6333 0.5757 0.6529-0.1309 0.8671-0.732 1.5967-0.5848l0.0274 0.201c0.4942 0.0697 0.924 0.1453 1.3048 0.4844 0.4156 0.3699 0.1274 0.5117 0.8485 0.5117l9e-3 -9e-3c0.0459-0.1828-0.1244-0.452-0.0365-0.7402 0.055-0.1807 0.3111-0.6684 0.4471-0.786 0.3764-0.0684 0.8156 0.3104 1.0949 0.128 0.2191-0.1432 0.4379-0.3933 0.7026-0.3199 1.1497 0.3188 0.4239-0.2042 1.1497-0.5026 0.25-0.1028 0.7636-0.1072 0.9671-0.3107 0.1365-0.1365 0.065-0.5413 0.292-0.4661 0.3285 0.1087 0.9813 0.3171 1.0311 0.7311 0.0513 0.4259 0.6404 0.1873 0.9306 0.2833 0 0.5518-0.1197 0.6043 0.2281 1.0784 0.4235 0.5771 1.6745-0.2695 2.1534-0.4661 0.898-0.3688 1.8079 0.2313 2.6004-0.3838 0.7454-0.0214 0.3075-0.698 0.8759-0.9596l1.0128-0.4661c0.3232-0.1488 0.3661 0.1993 0.6296 0.2102 0.5479 0.0227 0.6027-0.2422 1.2683-0.0457 0.3699 0.1092 0.7177-0.2044 0.8576-0.4843l0.8304-0.0183c1.2658-0.0279-0.0337-0.8493 0.9033-1.0966 0.4508-0.1189 1.0386-1.6214 0.9215-2.0928-0.371-1.4941 1.5511-0.8239 1.5511-1.316-0.2611-0.0645-0.3456-0.5004-0.5474-0.5849-0.1915-0.3473-0.8858-1.5261-1.3322-1.5261-5e-3 -0.0141 3e-4 -9e-3 -0.0182-9e-3 -0.0321-0.13-0.1369-0.6945-0.0821-0.6945 0.1076-0.2153 0.812 0.102 0.812-0.5118 0-0.2308-2e-3 -0.555 0.219-0.6945 0.139-0.0875 0.3794-0.3878 0.3924-0.5483 8e-3 -0.0985-0.225-0.642-0.2738-0.8316-0.1014-0.3932-0.0547-0.7422-0.0547-1.1424-0.4423-0.1463-1.5739 0.3323-1.2865-0.6762 0.1898-0.4945 0.2098-1.5351 0.2098-2.0928-0.8403-0.278-0.547-0.8783-0.7117-1.5444-0.5982 0-0.3055-0.2166-0.6204 0.2193-0.0146 0.0202-0.4696 0.0787-0.511 0.0822-0.0727 6e-3 -0.5431 0.1007-0.5657 9e-3 -0.2091-0.0528 0.0261-0.9334-0.2098-0.8591-0.3303 0.1039-0.748-0.543-0.8851-0.7767-0.1544-0.2629-0.2872-0.3754-0.146-0.6489 0.2092-0.4049-0.0382-0.6166-0.073-1.0052-0.1386-0.2522-0.219-0.5396-0.219-0.8225 7e-3 -5e-3 0.4141 0.0311 0.5019 9e-3 0.0384-0.1555-0.1497-0.4396 0.1186-0.6031 0.5369-0.3274 0.4732-0.2966 1.1223-0.2376 0.6166 0.0561 0.3513-0.1946 0.7117-0.5758 0.5339-0.5649 1.2608-0.8069 2.0438-0.7311 0.5984 0.058 1.4255 0.4058 1.9891 0.2559l0.4589-0.3718c0.3753 0.2546 0.7563 0.5577 1.0557 0.7648 0.4942 0.342 1.1477 0.7715 1.7701 0.795 0.5497 0.0207 0.9225-0.0201 1.4325-0.2467 0.2788-0.1238 0.5579-0.2076 0.786-0.2266l-0.7312-0.9523c0.0344-0.4403 0.0642-0.732 0.1551-1.1515 0.1209-0.5585 0.4042-1.3836 0.7299-1.8551 0.1785-0.2586 0.1704-0.6202 0.365-0.8956 0.1002-0.1417 0.4659-0.6588 0.5018-0.8042l6.9984-0.1371c0.0459-0.1204 0.0545-0.194 0.0821-0.3107 0.0354-0.1499 0.0729-0.2684 0.1368-0.4113 0.0789-0.1761 0.203-0.3506 0.3103-0.5117l0.5383-0.5301c0.1205-0.1984-0.0101-0.381 0.073-0.5483 0.1284-0.2586 0.8143-0.0582 0.6022-0.5574-0.2218-0.522-1.0131-0.489-0.2737-1.0876 0.248-0.2008 0.2554-0.2389 0.2554-0.5665 0-0.3632-0.3159-0.3086-0.4379-0.6032-0.0891-0.215-0.207-0.4367-0.3402-0.6527l0.5865-0.709c0.416-0.2297 1.7658-1.4382 1.907-1.9008 0.2148-0.704 0.7078-0.1258 1.25 0.0914l0.6387 0.2559c0.3726 0.1492 0.3305-0.3367 0.9125-0.0457 0.2934 0.1467 0.7067 0.0309 1.0128-0.0183 0.1865-0.03 0.4505 0.1108 0.5657 0.2467 0.0766 0.0905 1.0094 0.2552 1.1314 0.2285 0.1611-0.0352 0.6019-0.8105 0.8212-0.9961 1.0377-0.5357 1.9948 0.6251 3.1661 0.2193 0.4223-0.1462 0.6016-0.5054 1.0766-0.5757 0.398-0.059 0.7445 0.0545 1.1497-0.1188 0.7264-0.3105 0.7828-0.6186 1.6332-0.7128 0.6169-0.0684 1.5359-0.3025 1.7154-1.0053 0.0722-0.2827-0.1249-0.643 0.0365-0.923 0.2149-0.3725 0.5517 0.0236 0.8303-0.0914 0.2789-0.2906 0.7364-0.9872 0.8851-1.3525 0.1393-0.3421-0.1095-0.8811-0.1095-1.2612l9e-3 -9e-3c0.2603-0.0643 0.5698 0.0566 0.8577-0.064 0.724-0.3035 0.8195-0.6878 1.6332-0.4935 0.4556 0.1088 1.1757-0.0494 1.4325 0.3656 0.216 0.3493 0.7848 1.2838 1.2409 0.9413 0.336-0.2524 0.3683 0.05 0.6935 0.1096 0.2438 0.0447 0.4644-0.265 0.7299-0.265 0.2044 0.6133 1.4446 0.7838 1.0037 0.1188-0.1412-0.2131-0.564-0.7219-0.146-0.7219 0.462 0 0.5921-0.1964 0.7391-0.6397 0.0356-0.0924 0.0129-0.3662 0.0638-0.393l0.8669-0.4569c4e-3 -2e-3 0.1532 0.3678 0.3923 0.329 0.258-0.0418 0.5059-0.2217 0.7573-0.3108 0.3087-0.1095 0.1436 0.3946 0.584 0.4752 0.3148 0.0577 0.4421-0.1032 0.5657 0.2377 0.1667 0.4595 0.5685 0.1869 0.7299 0.5574 0.1236 0.2839 0.2972 0.1164 0.511 0.1828 0.0805 0.0249 0.2184 0.4772 0.2281 0.5666 0.0796 0.1419 0.1267 0.3509 0.1642 0.5026 1.1424 0.1918 1.3597-0.0708 1.8979 1.0692 0.1302 0.276 0.0215 0.8739 0.2098 1.0784 0.2947 0.3198 0.1974 0.4645 0.3011 0.8865 0.9689 0.1912 0.5208 1.1423 1.4508 1.1423 0.5654 0 0.2831 1.0601 1.3139 1.0601 4e-3 0.0167 2e-3 0.0141 0.0182 0.0183 0 0.3754 0.556 0.6706 0.8577 0.7859 0.6847 0.2616 0.7584-0.1462 1.2044-0.1462 0.0101 0.0305 0.0274 0.044 0.0274 0.0913 0.3374 0.1141 0.4697 0.3687 0.6934 0.6489 0.0427 0.5415 0.9136 1.9532 1.4325 2.1659 0.202 0.0828 0.6734-0.1567 0.365-0.329-0.0872-0.0488-0.2463-0.13-0.2463-0.2468 0-0.1174 0.4963-0.0438 0.3741-0.3655-0.1357-0.3569 0.0631-1.0975 0.5109-0.7037 0.265 0.2329 0.5261-0.2552 0.5931-0.4752 0.0782-0.2563 0.2779-0.1625 0.3558 0.0274 0.1388 0.3387 0.803-0.0517 0.803-0.3838 0-0.0728-0.2371-0.3381-0.073-0.4113s0.3735 0.1317 0.6204 0.0366c0.54-0.1045 0.338-0.4597 0.8486-0.1188 0.0693 0.0462 0.6091-0.1486 0.6934-0.2102 0.6319-0.4611 0.3161-0.8989 1.2866-0.7494l0.8303 0.128c0.3125 0.0481 0.2597-0.3839 0.6204-0.3839 0.3389 0 0.2528 0.2062 0.146 0.4021-0.3399 0.6228 0.9003 0.0535 0.9945 0.3382 0.0426 0.1287-0.06 0.5054 0.1825 0.5209 0.1078 7e-3 0.5931-0.7 0.5931 0.0183 0 0.6647 0.2038 0.3065 0.584 0.466 0.2513 0.1053 0.4205 0.5241 0.4471-0.0914 0.0195-0.4495 1.4976 0.4617 1.0766-0.4386-0.1665-0.3563-0.9109 0.0897-0.5839-0.6032 0.1654-0.3503-0.0913-0.285-0.0913-0.6123 0-0.2296 0.2569-0.3234 0.2099-0.6305-0.0883-0.5776 0.2275-0.4184 0.5018-0.1828 0.4563 0.3917 0.3693-0.3562 0.7026-0.4843 0.1611 0.0133 0.4193-0.0825 0.5566 9e-3 0.2749 0.1836 0.2645 0.3603 0.6752 0.3747 0.6321 0.0221 0.4672 0.4234 0.7481 0.8499 0.1697 0.2578 0.6158 0.6938 0.7847 0.1919 0.1366-0.4056 0.2681 9e-3 0.4927 9e-3 0.2504 0 0.4174-0.5393 0.7117-0.2102 0.3368 0.3766 0.8042-0.2285 1.0506-0.4743 4e-3 -0.0153 6e-3 -0.0234 0.0183-0.0274 0-0.3582 1.3022 0.1624 1.3321 0.1645 0.3572 0.025 1.405 0.3244 1.0311-0.3747-0.1383-0.2374-0.3905-0.5089-0.4927-0.7403-0.117-0.2646-0.1265-0.6067-0.2464-0.859-0.2517-0.53-0.6163-0.9327-0.8851-1.4166-0.1286-0.2314-0.01-0.8275-0.1368-0.859-0.8287-0.2062-0.7997-0.5626-1.2501-1.2521-0.1481-0.2266-0.6125-0.5967-0.6296-0.8407-0.0362-0.5139-0.4155-0.0957-0.812-0.2833-0.3617-0.171-0.6685-0.7319-0.6479-1.115-0.058-0.233-0.3461-0.4138-0.4379-0.7128-0.0648-0.211-0.4679-0.396-0.6661-0.4661-0.459-0.1622-0.3806-0.6989-0.9125-0.9504-0.405-0.1916-0.6068-0.6144-0.7938-0.9962-0.2663-0.5439-0.681-0.7452-0.9672-1.2155-0.4103-0.6745-1.0481-0.7535-1.5146-1.4073-0.3239-0.4538-0.0368-0.4247-0.5383-0.7951-0.4363-0.1823-1.1692-0.8925-0.5749-1.3343 0.3917-0.2913-0.3414-0.846-0.0547-1.2612 0.1565-0.2268 0.6587-0.3227 0.7117-0.5117 0.0495-0.1762-0.1491-0.1686-0.1095-0.329 0.4221-0.0851 0.4666-0.3473 0.8942-0.3473 0.1087-0.3335-0.4141-0.3228-0.6205-0.5301-0.3347-0.336 0.3132-0.8352 0.2372-1.0601-0.1911-0.0472-0.498-0.0365-0.7025-0.0365-0.3554 0-0.3781 0.5026-0.7482 0.5026-0.5462 0-1.1626-1.3707-1.2683-1.8552-0.2345-0.3225-0.2554-0.9699 0.2463-1.0967 0-0.254-0.8341-0.2314-0.739-0.7219 0.1039-0.5356 0.8613-0.5256 0.8759-0.5849 0.0687-0.0173-0.1216-0.323-0.1369-0.3839-0.1925-0.0476-0.5687-0.0639-0.7755-0.0639-0.0829-0.3298-0.1643-0.4894-0.1643-0.8682 0-0.4517-0.3265-0.4357-0.4014-0.7403-0.0168-4e-3 -0.0142-1e-3 -0.0183-0.0183-0.1836 0-0.0851 0.8004-0.1095 0.987-0.0464 0.3534-0.4197 0.7917-0.8121 0.7037-0.6726-0.1508-1.4223-2.1099-0.7664-2.2756v-0.0456c-0.1657-0.0418-0.3594 3e-3 -0.511-0.0183-0.1765-0.0248-0.2139-0.2664-0.2828-0.2742-0.2723-0.0309-0.0483 0.6385-0.7209 0.3656-0.7447-0.0627-0.6385-0.3091-1.1131-0.658-0.0316-0.0233-0.1891-0.2175-0.2008-0.1828-0.122 0-0.0991 0.3787-0.1551 0.4569-0.1671 0.2337 0.0976 0.2221 0.0548 0.393-0.1114 0.4454-1.0999-0.0405-1.2866-0.1554-0.062-0.0382-0.5201-0.4337-0.5201-0.3015 0 0.3632 0.3242 0.4274-0.1368 0.6031-0.4412 0.1681-0.1069 0.8831-0.7847 0.8317-0.2032-0.0154-0.2762-0.3359-0.365-0.4753-0.3122-0.4901-1.0708-0.5869-1.2227-1.188-0.4509 0 0.194 1.0468-0.5383 0.8042-0.3419-0.1133-0.7688-0.7836-0.9307-1.0875 0.0914-0.2983 0.1272-0.8126 0.3467-1.0327 0.2319-0.2327 0.6001 0.0762 0.7482-0.1462 0.2978-0.4475 0.6844 0.1255 0.6844-0.9231 0-0.9362 0.5445-2.7649 1.5602-3.0432 0.7797-0.2137 1.3983 0.3591 2.0804 0.0365 0.7066-0.3343 1.9863-0.6346 2.6004-0.1462 0.1321 0.1051 0.8023 0.5924 0.7665 0.1919-0.0398-0.4442-0.583-0.7496-0.7208-1.2063-0.0892-0.5912-0.3724-3.0023 0.2281-3.3997 0.522-0.3453 1.8431 0.3705 1.8431-0.6305 0.2964-0.1482 0.5292-0.4303 0.8486-0.0732 0.3325 0.3719 0.381-0.1534 0.4471-0.4021 0.0606-0.2278 0.2319-0.1324 0.4106-0.1919 0-0.0575-5e-3 -0.1452-0.0822-0.1645-0.022-0.0891-0.3902-0.4293-0.4471-0.4478-0.1231-0.498 0.0494-1.3929 0.3559-1.8369 0.5388-0.7802 1.3609-0.3809 2.0895-0.2559 0.3424 0.0804 0.6357 0.2181 0.9945 0.2011 0.1472-7e-3 0.2184-0.1127 0.365-0.0183 0.335 0.2156 0.3103-0.0366 0.5931-0.0366 0.6976 0 1.3064 0.2194 2.0347 0.2194 0.2241 0 1.1595 0.1408 1.2774 0.0822 0.2341-0.1166 0.0291-1.076-0.0182-1.2612-0.1735-0.6794-0.5042-1.5923-0.146-2.2298 0.3952-0.7036-0.3032-2.7858-0.4653-3.5551 0-0.6859-0.0317-1.1864 0.2554-1.7638 0.387 0 0.5452 0.1307 0.5019-0.3655l-0.0821-0.9413c-0.0618-0.708-0.2055-2.1239 0.0365-2.7508 0.2734-0.7085 0.1431-0.9528-0.0183-1.7364-0.1545-1.0389-0.438-2.1264-0.438-3.1804 0-0.5069-0.1338-1.6294 0.2373-2.0014 0.2259-0.2263 0.5126-0.4679 0.6569-0.7585 0.1999-0.4023 0.2427-1.0343 0.3833-1.4897l0.3284-1.4439c0.0749-0.3295 0.111-0.7169 0.2646-1.0144 0.0896-0.1734 0.2223-0.3095 0.2738-0.5209 0.0668-0.2736 0.0116-0.5673 0.0639-0.8408 0.0454-0.237 0.2936-0.861 0.2281-1.0693-0.0509-0.1616-1.0239-0.2187-1.2866-0.3655-0.2738-0.1531-0.0965-0.32263-0.5657-0.4295-1.2446 0.16756-1.2994-0.48546-0.2372-0.5027 0.53906 0.06496 0.6368 0.2034 1.0219-0.1828 0.3929-0.3939 1.0007-0.679 1.5238-0.8499 0.3349-0.1095 0.7383-0.4843 1.0858-0.4843 0.2105 0 0.3482 0.1217 0.5657 0.0548 0.1238-0.0381 0.4522-0.1947 0.5566-0.2742 0.369-0.4518 0.0827-0.8479 0.3011-1.2063 0.2149-0.3528 0.4413-0.4522 0.5931-0.9047l0.7482-2.2299c0.1767-0.5268 0.616-0.9851 0.7025-1.508 0.1425-0.8616 0.2282-1.3359 0.6739-2.0827 0.5634-1.1284 1.2336-1.118 2.0347-1.9191 0.796-0.796 1.0952-0.6591 1.907-0.1554 0.323 0.2003 1.5159-0.0736 1.9161-0.1462 0.2612-0.0474 0.3396-0.2833 0.5748-0.2833 0.4083 0 0.3523 0.0992 0.7938-0.1097 0.5777-0.2732 2.1722-0.7902 2.8103-0.6214 0.3387 0.0895 1.1643 0.5146 1.4325 0.4752 0.541 0 0.9498 0.0373 1.3413 0.4295 0.2462 0.2467 0.6168 0.7638 0.9581 0.8682 0.4593 0.1404 0.9465 0.1374 1.3868 0.2742 0.2909 0.0903 0.5021 0.4605 0.657 0.5117v0.0274c0.0714 0.0241 0.0306 0.658 0.1825 0.658 0.4706-1.4222 0.6605-2.1665 1.9799-3.1711 0.3306-0.3306 0.7905-0.5445 1.1223-0.8773 0.2656-0.2663 0.4485-0.522 0.6205-0.8682 0.3055-0.6152 0.4026-1.1028 0.8668-1.6449 0.249-0.2907 0.4027-0.7112 0.5292-1.0601 0.0854-0.9556 0.8355-1.9024 0.7847-2.8513-0.0496-0.9255-1.0869-1.4311-1.3869-2.2664-0.2248-0.6262-0.2722-1.2761-0.0274-1.91 0-0.3156-0.0391-0.7604 0.0821-1.0327 0.1631-0.3667 0.2355-0.2578-0.0638-0.594-0.4396-0.4936-0.2102-1.4728-0.3559-2.0927-0.1062-0.4523-0.0185-0.7883 0.3376-1.0784 0.4373-0.3561-0.0365-0.9517-0.0365-1.3982 0-0.2649 0.2112-0.683 0.2646-0.9961l-2.2902 0.1919c-1.2513 0.0685-2.8512 0.2684-4.0694-0.0274-1.2326-0.2992-2.2417-0.8359-3.5311-0.923l-2.9745-0.2011c-3.0068 0-5.0338-2.0486-7.71-3.1254-0.784-0.3155-2.0662-1.0771-2.7555-1.5901-0.335-0.1956-1.1414-0.2607-1.2409-0.5849-0.1155-0.376-0.1276-0.8436-0.1917-1.2429-0.1656-1.0302-0.4436-2.0054-0.8211-2.9518-0.1965-0.4925-0.6916-1.4248-0.6022-1.9465-0.0444-0.663-0.1663-1.6176-0.5292-2.1385-0.151-0.2167-0.891-1.1627-1.1771-0.9138l-0.9033 0.7859c-0.3207 0.279-0.6104 0.7064-1.0675 0.7859-1.6546 1.4007-2.9495 0.5873-4.7629 1.2155-1.7164 0.5947-1.8199-0.5189-2.2902-1.8186l-0.9489-2.6228c-0.1273-0.3518-1.1156-0.8549-1.4781-0.7494-0.4717 0.1374-0.5444 1.0607-0.6935 1.453-0.3053 0.8036-0.7414 0.5993-1.5876 0.4935l-4.1151-0.3564c-1.135-0.0982-2.0802 0.3032-3.157 0.3381-0.5947 0.0193-0.4949-0.0686-0.7938-0.4934l-1.1314-1.6084c-0.1531-0.1763-0.2177-0.4052-0.4197-0.5301-0.2215-0.1371-0.4643-0.1789-0.7026-0.2742-0.562-0.225-1.1638-0.5646-1.7427-0.7128-0.3014-0.0772-0.1995-0.2696-0.219-0.5483-0.0248-0.3528-0.4193-0.6686-0.4379-0.9961-0.0406-0.7156 0.1091-0.9793-0.233-1.6312-0.5196 0.1205-1.5779 0.6523-1.8474 0.6808-1.2321 0.1306-2.1074-0.2239-3.1205-0.9596-0.5208-0.3781-0.9992-0.2189-1.6515-0.201-0.4968 0.0136-1.0673-0.119-1.5511-0.3747-1.0273-0.543-2.5527 0.466-3.7866 0.466-1.6822 0-3.2505 0.6732-4.8222 0.9002-1.1975 0.5039-2.1888 1.1212-3.3075 1.8506-1.1389 0.7426-1.8631 0.7853-3.1752 0.9139-0.7543 0.0739-1.5081 0.51-2.2446 0.6945-0.2677 0.067-0.5355 0.1341-0.803 0.2011-0.511 0.1279-1.0187 0.2696-1.5328 0.3838-1.1291 0.2509-1.7074-0.128-2.7647-0.128-1.1642 0-2.1559 0.4849-3.2026 0.9322-1.7825 0.7618-3.7311-0.5065-5.6297 0.3381-0.9315 0.4143-1.6575 1.3095-2.5913 1.6998-0.809 0.3381-1.6181 0.6763-2.427 1.0144-0.574 0.2398-0.9415-0.1279-1.4599-0.1279-1.1055 0-1.6146 0.5359-2.4544 0.9687-1.1906 0.6137-1.4008 2.5803-2.3815 3.5183-1.2776 1.2219-3.1986 1.6395-4.3614 3.0798-0.2427 0.3006-0.6576 0.8534-0.9124 1.1058-0.3465 0.3433-0.3833 1.0008-0.6843 1.453-0.2073 0.3114-0.613 0.6494-0.8942 0.9047-0.6433 0.5841-0.8762 1.5201-1.4781 2.1476-0.4994 0.5206-0.9205 0.4542-1.5603 0.5758-0.9416 0.1791-0.893 1.5661-1.5146 2.0562-0.6923 0.5458-1.3617 1.2459-2.2537 1.4439-0.7683 0.1705-1.5514-0.081-2.2993 0.1005-1.7593 0.4271-3.0327 1.7208-4.6078 2.4857-0.8703 0.4226-2.2518-0.0294-3.2026 0.0823-1.4041 0.165-2.3107 1.3799-3.8231 1.3799-1.2907 0-2.1379-0.6944-3.157-1.3708-0.7573-0.5026-1.5146-1.0054-2.2719-1.5079-1.0807-0.7172-1.9258-1.1845-3.1748-1.5012-1.4026-0.3557-1.9294 0.3401-3.194 0.6513-1.3851 0.3409-2.3539-0.4443-3.3851-1.1697-0.5026-0.3536-1.0178-1.1371-1.6241-1.2429-0.8865-0.1547-2.1056 0.3758-3.0019 0.594-0.739 0.1799-1.7516 0.7237-2.5092 0.5758-0.723-0.1411-1.2511-0.5458-2.0164-0.4113-0.2657 0.0466-0.506 0.1449-0.731 0.2707-1.0276 0.5746-1.7431 1.7301-3.1651 1.2372-0.8734-0.3027-1.6446-0.9078-2.2354-1.4347-1.7946-1.6007-2.5857-2.2087-4.9363-2.5223-0.6901-0.092-1.4034-0.3357-2.0985-0.3016-0.894 0.0439-1.6287 0.8389-2.345 1.2794-0.531 0.3265-1.1862 1.3982-1.8248 1.3982-1.0835 0-1.2634 0.6533-2.1807 0.9505-0.5876 0.1903-0.8777 0.027-1.4417-0.0457-0.8998-0.1161-1.5593 0.1381-2.3997 0.4112-1.0755 0.3496-2.582 0.6851-3.6953 0.4661-0.5176-0.1018-0.8055-0.5748-1.3139-0.7311-0.5602-0.1723-1.1522-0.0941-1.7245-0.2011-0.9636-0.1802-1.5915-1.2946-2.5456-1.718-2.071-0.9191-4.0896-0.6771-6.1407-1.2703-1.209-0.3496-2.1151-0.9-3.2172-1.2663-0.1803-0.0599-0.3664-0.1139-0.5602-0.1594-1.1386-0.2673-1.5358-1.3482-2.5548-1.5718-0.8996-0.1974-2.0243 0.0468-2.9015 0.2376-1.6693 0.3632-2.1048 0.4037-3.7136-0.2102-0.8282-0.316-1.3977-0.621-2.0439-1.2337-0.5441-0.5159-1.0318-0.8094-1.8157-0.8316-0.605-0.0171-1.0083-0.1976-1.5237-0.4752-0.6557-0.3531-1.4063-0.1644-2.1169-0.1463-1.7396 0.0444-4.5088-0.5979-6.0494 0.2102-1.3473 0.7067-2.6946 1.4136-4.042 2.1202-0.9534 0.5001-1.7784 0.3634-2.7738 0.5026-1.3629 0.1907-3.147 0.0517-4.4709-0.3564-1.0426-0.3214-1.6958-1.0545-2.8011-1.1971-0.6978-0.0901-1.1367-0.0033-1.761-0.4113-0.5047-0.3298-1.3279-1.4716-1.4052-2.0653-0.1918-1.4737 0.5361-2.2136 1.0311-3.4727 0.4077-1.037 0.0713-2.5004 0.958-3.2443 0.2298-0.1928 0.6492-0.3467 0.8668-0.4843 0.5388-0.3407 1.0222-0.555 1.6698-0.6763 0.5428-0.1017 1.1561 0.1049 1.6788-0.1188 0.8257-0.3535 1.2994-0.8379 1.7063-1.6084 0.9517-1.8019 0.591-3.1623-1.5603-3.6189-0.7663-0.1626-3.0245 0.0037-3.6041-0.6306-0.5562-0.6087-1.3688-1.1374-1.9343-1.7363-0.4605-0.4877-1.5458-0.5898-2.1442-1.0053-1.0035-0.6968-2.1857-2.6589-3.4034-2.705-1.0657-0.0403-1.8938 0.2228-2.4179-0.7768l-0.5931 0.4661c-0.1188 0.2231-0.3466 0.3025-0.4653 0.594-0.2398 0.589-0.2961 1.4061-1.0402 1.5901-0.0041 0.0167-0.0016 0.0141-0.0182 0.0183-0.0954 0.3776-0.3206 0.2733 0.0547 0.7493 0.252 0.3195 0.3247 0.4615-0.1277 0.5758-0.1387 0.5611-0.2555 1.5097-0.2555 2.0836 0 0.272 0.4652 0.832 0.3285 0.9687-0.1795 0.1795-0.146 0.6951-0.146 0.9504 0.276 0.0933 0.279 0.1844 0.1733 0.4478 0 0.7573-0.8611 0.297-1.3139 0.3838-0.3655 0.0701-0.1346 0.2757-0.2737 0.457-0.0959 0.1249-0.3275-0.0107-0.4744-0.0274-0.4688-0.0533-0.5761 0.2182-1.0676 0.1919-0.1687-9e-3 -0.7654 0.01-0.6113 0.3198 0.0852 0.1711 0.2881 0.142 0.2646 0.4296-0.0164 0.2001-0.0163 0.1697 0.1004 0.3289 0.1008 0.1373-0.1969 0.3909-0.2099 0.5758-0.0194 0.2768-0.7607 0.2912-0.9398 0.3473-0.3154 0.0689-0.9519 0.0182-1.3048 0.0182-0.2971 0-0.5976 0.0777-0.8941 0.064l-0.5926-0.027c-0.3161-0.0146 0.0412 0.4565-0.438 0.53-0.3128 0.0479-0.6139 0.2104-0.9033 0.2468-0.086 0.3478-0.2396 0.1706 0.1095 0.5209 0.1234 0.1237-0.3376 0.3559-0.3376 0.5849 0 0.2484 0.1551 0.4553 0.1551 0.7128 0 0.2035 0.0722 1.0206-0.0365 1.1423-0.3494 0.3908-0.0388 0.5422-0.1825 0.8042-0.1962 0.358-0.5547 0.555-0.6569 0.987-0.0699 0.2951 0.1068 0.4016 0.1186 0.6397 0.0127 0.2552-0.0452 0.516-0.1095 0.7585 0.1082 1.3819-0.362 2.8809-1.0128 4.0393-0.248 0.4413-0.4827 0.8173-0.2555 1.3343 0.1427 0.3245 0.2824 0.827 0.5019 1.1057 0.2741 0.3478 0.5136 0.7672 0.6022 1.2063 0.3252 0.4289 0.7521 0.2335 0.7025 0.6946-0.0534 0.4974-0.4324 1.011-0.3102 1.5079 0.8091 0.2 0.0733 3.098 1.9252 3.098 0.0057 0.0168 0.0262 0.0091 0.0457 0.0091 0.2923 0.8966 0.7795 0.8053 1.5511 0.9961 0.0084 0.0258 0.0547 0.0231 0.0547 0.0731 0.1306 0.0435 0.4471 1.0223 0.4471 1.1972-0.0342 0.0887-0.0365 0.0616-0.0365 0.1097-0.0166 0.0083-0.0273 0.0335-0.0273 0.0548-0.0564 0.0184-0.3924 0.3966-0.3924 0.4844 0.5328 0.1763 0.6668 1.2493 0.3376 1.6175-0.4555 0.5097 0.6336 0.4553 0.3285 1.0144-0.2058 0.3773-0.4334 0.3564-0.3285 0.9047 0.0621 0.3244 0.1104 0.5531 0.3011 0.8408 0.3291 0.4966 0.2555 0.2795 0.2555 0.9047 0 0.6307 0.333 0.9571 0.6204 1.4988 0.2046 0.5121 0.1765 0.7589 0.3103 1.2885 0.0904 0.0223 0.179 0.1089 0.2737 0.128 0 1.3409 1.0885 1.06 2.053 1.06 0.2232 0.6846 0.6502 1.6993 1.469 1.9009 0.396 0.0974 0.8948-0.2065 1.0675-0.128l0.5018 0.2285 0.4654 0.1736 0.0638 0.658c0.1031 1.0632 1.1574 1.1149 2.0621 1.1149 0.1195 0.0337 0.2277 0.0168 0.3467-0.0182 0.0329-0.0097 0.1411-0.06 0.1552-0.0183h0.0182c0.0041 0.0168 0.0016 0.0141 0.0183 0.0183 0.1297 0.5246 1.3829 0.6291 1.5876 0.8956 0.0602 0.0785 0.0778 0.5189 0.1095 0.6488 0.1963 0.8048 1.3929 1.5986 2.1259 1.8826 0.7106 0.2752 0.543 1.7459 1.0037 2.3395-0.1207 0.6867-0.0854 0.9797 0.6296 1.0418 0.3162 0.0275 0.2572 0.9008 0.4562 1.1515 0.2855 0.3594 0.7606 0.596 0.9854 0.9961 0.2677 0.4767 0.0912 0.6131 0.6752 0.923 0.9128 0.4843 0.8384 1.1141 1.9526 0.9504 0.4472-0.0656 2.4373 0.4448 2.1533 1.0875-0.1763 0.3988-0.5379 0.6767-0.7208 1.0235-0.0879 0.1669 0.0731 0.2868 0.2007 0.4296 0.1453 0.1624 0.0143 0.4957 0 0.6945-0.0807 0.4325 0.1135 0.9657-0.3011 1.3068-0.2299 0.189-0.0974 0.5005-0.1277 0.7677-0.0291 0.257-0.6133 0.7447-0.8212 0.9139-0.2076 0.1691-0.3797 0.2756-0.6478 0.3289-0.317 0.0629-0.5724 0.2672-0.8486 0.4204-0.3547 0.3876-0.511 0.6091-0.6752 1.1424-0.0452 0.1468-0.0418 0.3597-0.1186 0.4843-0.2785 0.4523-0.2783 0.3001-0.4379 0.8773-0.1457 0.5273-1.1429 0.8339-1.5603 1.1606-0.2013 0.1576-0.3575 0.532-0.4197 0.7677-0.1711 0.6486-2.2444 1.0616-2.7647 1.4713-0.0778 0.0612-0.0477 1.1408-0.1003 1.3525-0.1321 0.5323-0.7839 0.3967-0.5931 0.923 0.0536 0.1015 0.1846 0.4288 0.3193 0.4478 0.0197 0.0981 0.1369 0.0837 0.1369 0.2285 0 0.2493-0.3464 0.8881-0.6296 0.923-0.0107 0.0437-0.1476 0.0934-0.1733 0.1645-0.0531 0.1464 0.0338 0.4906-0.1551 0.5483-0.2882 0.0882-0.1573 0.5454-0.3833 0.786-0.316 0.3366-0.4971-0.0457-0.7846-0.0457-0.0766 0.3033-0.3547 0.2137-0.5201 0.0731-0.3081-0.2617-0.1322 0.7244-0.5931 0.3107-0.4741-0.4257-0.3064 0.3847-0.8303 0.6031-0.4699 0.6938-0.2395-0.8383-1.323-0.4752-0.3602 0.1207-1.2573-0.6231-1.3504-0.9047-0.8964 0.126-2.0196-0.035-1.7428 1.4074 0.141 0.7345-0.6312 0.1307-1.0128-0.0914-0.2406-0.1401-0.6107-0.3731-0.8668-0.4387-0.2189-0.056-0.3711 0.3016-0.593 0.3564 0 1.3631-0.5853 0.9672-1.2683 2.0014-0.1872 0.2834-0.5868 0.6589-0.9307 0.4204-0.1326-0.092-0.7978 0.3598-1.0584 0.4112-0.2555 1.0393 0.5479 1.0745 0.6843 1.8278 0.0944 0.5209 1.077 2.2863 1.5055 2.4674 0.1065 0.1438 0.3758 0.332 0.3102 0.53-0.0663 0.2005-0.2004 0.1824-0.1186 0.4296 0.0329 0.0994 0.1086 0.4759 0.0365 0.5483-0.3185 0.3201-0.2815-0.3467-0.6478 0.3473-0.1887 0.3574-0.2156 0.4445-0.3102 0.8773-0.0254 0.1162-1.0865 1.1588-0.4015 0.9961 0.4863-0.1154 0.3564 0.7159 0.2737 0.9504-0.0889 0.2524-0.8359 1.1795-0.4927 1.3617 0.2057 0.1093 0.5816 0.4289 0.1734 0.5757-0.2713 0.0975-0.3741 0.7196-0.3741 0.987-0.1764 0.8398 0.1037 0.8004-0.5566 1.517-0.1912 0.2076-0.2137 0.9868-0.1369 1.2977 0.3743 0 0.7286-0.1494 1.095 0.0366 0.3808 0.1932 0.2861 0.496 0.5292 0.6397 0.5874 0.3475 0.64 0.5339 1.0401 1.0692 0.309 0.4136 0.6378 0.2634 0.9033 0.53 0.6575 0.6604 1.8245 2.0316 1.1497 2.9335-0.1073 0.2779-0.4288 0.5344-0.4288 0.8225 0 0.2233 0.2372 0.4058 0.1003 0.6123-0.3077 0.4643-0.1338 0.8403-0.2737 1.3251-0.0911 0.3155-0.5095 0.3166-0.6113 0.7768-0.0539 0.2437 0.0495 0.5875-0.0365 0.8134-0.1095 0.2872-0.6236 1e-3 -0.9033 0.0182-0.2649 0.016-0.716 0.1644-0.9125 0.2285 0 0.5586 0.4673 0.7303-0.3741 0.8956-0.0509 0.206-0.4661 0.7595-0.4014 0.8956 0.3518 0.7405 0.0381 1.2329-0.4562 1.7272-0.8986 0.8986-0.7881-0.4084-1.1862-0.1554-0.0467 0.1821-0.2925 0.3174-0.4562 0.1828-0.1562-0.1285-0.2081-0.2194-0.3285 9e-3 -0.1189 0.226-0.4374 0.2155-0.6569 0.2833-0.2787 0.086-0.7004-3e-4 -0.8577 0.2833l-0.1551 0.4477 0.739 0.1828c0.046 0.2019 0.2108 0.4706 0.292 0.6854 0.1418 0.3746 0.4373-9e-3 0.5748 0.5392 0.0988 0.3938 0.2166 0.7521 0.5658 0.987 0.4817 0.3242 0.2197 0.1925 0.4653 0.658 0.0664 0.1258 0.3302 0.0104 0.4927 0.2741 0.1391 0.2259 0.2971 0.3344 0.4471 0.5209 0.1187 0.1474 0.0874 0.392 0.1369 0.5758 0.1063 0.3949 0.571 0.5829 0.6752 1.0235 0.2441 1.0322-0.093 0.4788 0.885 0.8316 0.8159 0.2942 0.4924 0.6097 0.6752 1.2977 0.016 0.2579 0.3194 0.5052 0.3194 0.7402 0 0.1783-0.2922 0.4657-0.0639 0.6306 0.1859 0.1344 0.6979 0.798 0.7482 0.8134 0.4656 0.1434 0.707 5e-3 1.0584 0.5026 0.2084 0.2954 0.4865 0.6785 0.7756 0.8956 0.2613 0.1963 0.7465 0.0979 0.9033 0.2833 0.142 0.1681 0.1242 0.5239 0.3832 0.6214 0.5567 0.2098 0.9872 0.0654 1.4872 0.4935 0.5782 0.4952 0.7204 1.094 1.5785 1.3251 0.7126 0.192 1.316-0.2693 1.7793-0.1554l0.6478 1.1881c0.3169 0.3051 0.6802 0.0487 1.0219 0.2102 0.2469 0.1168 1.0785 0.4334 1.3139 0.3015 0.2827-0.1583 0.4659-0.5575 0.6569-0.1645 0.2748 0.5657 0.4184 1.0816 1.168 1.1058 0.5803 0.0188 0.8542-0.2138 1.4233-0.0731 0.092 0.3661-0.0983 0.5051-0.2281 0.8134-0.1924 0.4573 0.249 0.2774 0.4562 0.53 0.1595 0.1946 0.0901 0.9225 0.2099 1.2703 0.187 0.5432-0.2167 1.2369-0.0091 1.8643-0.1188 0.4046-0.3849 0.5099 0 0.8773l0.5839 0.5574c0.047 0.0156 0.0085 0.3663 0.0365 0.4478 0.0973 0.2824 0.2636 0.5345 0.3103 0.8499 0.0437 0.2956-0.0352 0.6301 0.0365 0.9139l0.0091 9e-3c0.9282 0 0.9821 0.9307 1.3595 1.6085 0.2018 0.3623 0.1428 0.78 0.3285 1.1514 0.1602 0.3206-0.0557 0.7286 0.146 1.051 0.0142 0.4644 0.6046 0.7516 0.7117 1.0601 0.2345 0.6758-0.3155 1.074 0.6478 1.1971 0.2519 0.0322 0.4914 0.1571 0.7299 0.1463 0.2181-0.01 0.4936-0.0528 0.7026 0 0.105 0.5322 0.0243 0.8062 0.5018 1.124 0.2907 0.1936 0.6443 1.897 0.4836 2.2207-0.1826 0.3675-0.4611 0.1292-0.6204 0.4478-0.1879 0.3761-0.3631 0.8124-0.657 1.1332-0.0854 0.2019-0.3628 0.2353-0.5201 0.393-0.3916 0.3928-0.2438 0.9269-0.3558 1.3799-0.0219 0-0.0305 9e-3 -0.0548 9e-3 -0.0577 0.1771-1.3412-0.2728-1.3412 0.6306 0 0.6527 0.0765 1.3026-0.0092 1.974-0.0716 0.5607-0.1057 0.6687 0.3376 0.9138 0.2488 0.1376 0.7368 1.3228 0.5657 1.5353-0.2445 0.3039 0.0897 0.5134-0.0273 0.7585-0.1383 0.2894-0.3839-0.0826-0.584 0.3199 0.0788 0.4864 0.9074 1.4864 0.4836 1.9465-0.2454 0.2663-0.3558 0.2286-0.3558 0.6489 0 0.1806-0.0822 0.557 0 0.7128 0.0597 0.1134 0.269 0.0807 0.2554 0.2467-0.0621 0.7566 0.6133 1.2558 0.2464 1.9192-0.1896 0.3429-0.5915 0.751-0.7026 1.1149-0.1427 0.4678 0.3373 0.6934 0.3741 1.1423-0.0363 0.1254 0.0121 0.2438 0.0183 0.3747 0.0094 0.2001-0.0822 0.4076-0.0822 0.6306 0 0.3671 0.0923 0.7307 0.0457 1.1058-0.0466 0.3756-0.6235 0.3207-0.657 0.6945l-0.2098 0.4478z"
  style="fill:#f8d473;stroke-width:.26458;stroke:#000"/>
<text x="24.241716" y="88.0812" style="fill:#000000;font-family:monospace;font-size:4.5861px;font-weight:bold;letter-spacing:0px;line-height:1.25;stroke-width:.26458;word-spacing:0px" xml:space="preserve"><tspan x="24.241716" y="88.0812" style="font-family:monospace;font-size:5.6444px;font-weight:bold;stroke-width:.26458">Sofia</tspan></text>
<text x="90.944481" y="116.02149" style="fill:#000000;font-family:monospace;font-size:4.9389px;font-weight:bold;letter-spacing:0px;line-height:1.25;stroke-width:.26458;word-spacing:0px" xml:space="preserve"><tspan x="90.944481" y="116.02149" style="font-family:monospace;font-size:4.9389px;font-weight:bold;stroke-width:.26458">Plovdiv</tspan></text>
<text x="192.3448" y="99.171227" style="fill:#000000;font-family:monospace;font-size:4.9389px;font-weight:bold;letter-spacing:0px;line-height:1.25;stroke-width:.26458;word-spacing:0px" xml:space="preserve"><tspan x="192.3448" y="99.171227" style="font-family:monospace;font-size:4.9389px;font-weight:bold;stroke-width:.26458">Burgas</tspan></text>
<text x="222.13431" y="54.418224" style="fill:#000000;font-family:monospace;font-size:4.9389px;font-weight:bold;letter-spacing:0px;line-height:1.25;stroke-width:.26458;word-spacing:0px" xml:space="preserve"><tspan x="222.13431" y="54.418224" style="font-family:monospace;font-size:4.9389px;font-weight:bold;stroke-width:.26458">Varna</tspan></text>
<text x="126.5" y="71.3" style="fill:#000000;font-family:monospace;font-size:4.9389px;font-weight:bold;letter-spacing:0px;line-height:1.25;stroke-width:.26458;word-spacing:0px" xml:space="preserve"><tspan x="126.5" y="71.3" style="font-family:monospace;font-size:4.9389px;font-weight:bold;stroke-width:.26458">Veliko Tarnovo</tspan></text>
<text x="118.82137" y="102.3027" style="fill:#000000;font-family:monospace;font-size:4.9389px;letter-spacing:0px;line-height:1.25;stroke-width:.26458;word-spacing:0px" xml:space="preserve"><tspan x="118.82137" y="102.3027" style="font-family:monospace;font-size:3.5278px;stroke-width:.26458">Stara Zagora</tspan></text>
<text x="153.72899" y="21.838884" style="fill:#000000;font-family:monospace;font-size:4.9389px;letter-spacing:0px;line-height:1.25;stroke-width:.26458;word-spacing:0px" xml:space="preserve"><tspan x="153.72899" y="21.838884" style="font-family:monospace;font-size:3.5278px;stroke-width:.26458">Ruse</tspan></text>
<text x="8.4075708" y="14.073318" style="fill:#000000;font-family:monospace;font-size:4.9389px;letter-spacing:0px;line-height:1.25;stroke-width:.26458;word-spacing:0px" xml:space="preserve"><tspan x="8.4075708" y="14.073318" style="font-family:monospace;font-size:3.5278px;stroke-width:.26458">Vidin</tspan></text>
<text x="99.803368" y="46.71936" style="fill:#000000;font-family:monospace;font-size:3.8806px;font-weight:bold;letter-spacing:0px;line-height:1.25;stroke-width:.26458;word-spacing:0px" xml:space="preserve"><tspan x="99.803368" y="46.71936" style="font-family:monospace;font-size:3.8806px;font-weight:normal;stroke-width:.26458">Pleven</tspan></text>
<circle cx="44.307" cy="86.593" r="1.3855" style="fill-rule:evenodd;fill:#f8fdff;stroke-linecap:round;stroke-linejoin:round;stroke-width:.96103;stroke:#070707"/>
<circle cx="101.61" cy="120.25" r="1.4054" style="fill-rule:evenodd;fill:#000002;stroke-width:0"/>
<circle cx="231.22" cy="57.622" r="1.4054" style="fill-rule:evenodd;fill:#000002;stroke-width:0"/>
<circle cx="212.71" cy="98.153" r="1.4054" style="fill-rule:evenodd;fill:#000002;stroke-width:0"/>
<circle cx="143.96" cy="66.486" r="1.4054" style="fill-rule:evenodd;fill:#000002;stroke-width:0"/>
<path id="pathWay" d="m44.164 86.531s24.037 18.528 34.46 25.024c3.6916 2.3007 10.518 5.4357 10.518 5.4357s7.0905 2.8745 12.429 3.3252c16.011-2.4614 38.43-14.142 53.744-19.423 10.526-3.6298 34.717-8.8498 45.789-7.6836 8.0949 0.85261 11.593 5.1547 11.593 5.1547s2.9945-5.2046 4.7822-7.7557c1.4926-2.1299 5.167-5.8465 5.167-5.8465s3.8307-6.4012 5.0292-9.9046c1.9226-5.6199 3.6984-17.304 3.6984-17.304s-14.462-3.7555-21.577-3.1068c-9.794 0.89306-24.337-2.3014-32.62-1.0716-6.5139-0.46787-28.843 8.3903-33.258 13.206 0 0-8.5517-1.1651-11.754-2.1461-9.5754-2.9331-59.913-0.93609-66.905 6.2335-3.7407 3.8359-21.097 15.862-21.097 15.862z" style="fill:none;stroke-linejoin:round;stroke-width:.79375;stroke:#16cc15"/>
<circle cx="94.787" cy="45.76" r=".8055" style="fill-rule:evenodd;fill:#000002;stroke-width:0"/>
<circle cx="31.985" cy="128.49" r=".8055" style="fill-rule:evenodd;fill:#000002;stroke-width:0"/>
<circle cx="97.879" cy="150.49" r=".8055" style="fill-rule:evenodd;fill:#000002;stroke-width:0"/>
<circle cx="145.64" cy="101.59" r=".8055" style="fill-rule:evenodd;fill:#000002;stroke-width:0"/>
<circle cx="20.59" cy="13.488" r=".8055" style="fill-rule:evenodd;fill:#000002;stroke-width:0"/>
<circle cx="151.96" cy="21.174" r=".8055" style="fill-rule:evenodd;fill:#000002;stroke-width:0"/>
<text x="33.419853" y="129.20775" style="fill:#000000;font-family:monospace;font-size:3.8806px;font-weight:bold;letter-spacing:0px;line-height:1.25;stroke-width:.26458;word-spacing:0px" xml:space="preserve"><tspan x="33.419853" y="129.20775" style="font-family:monospace;font-size:3.8806px;font-weight:normal;stroke-width:.26458">Blagoevgrad</tspan></text>
<text x="99.410576" y="151.20465" style="fill:#000000;font-family:monospace;font-size:3.8806px;font-weight:bold;letter-spacing:0px;line-height:1.25;stroke-width:.26458;word-spacing:0px" xml:space="preserve"><tspan x="99.410576" y="151.20465" style="font-family:monospace;font-size:3.8806px;font-weight:normal;stroke-width:.26458">Smolyan</tspan></text>
</svg>