<svg viewBox="0 0 836.99 795.57" xmlns="http://www.w3.org/2000/svg">
    <g transform="translate(-400.32 -70.85)">
        <g transform="matrix(13.766 0 0 13.766 405.82 55.631)" fill="#ffd700" stroke="#daa520"
           stroke-width=".79904">
            <g opacity=".8">
                <polygon transform="translate(-.43584)"
                         points="18 30.499 18 28.495 12.997 28.495 13.015 22.495 11 22.495 11 28.495 6 28.495 6 30.51 11 30.492 11 45.507 13.018 45.53 13.018 30.517"/>
                <rect x="29.815" y="40.495" width="3" height="18"/>
                <rect x="40.911" y="34.495" width="3" height="24"/>
                <rect x="51.776" y="40.496" width="3" height="18"/>
                <path d="m59.292 29.539-34.292-10.478v39.435h2.8717v-16.687c0-5.1812 7-4.2571 7 0v16.687h4v-22.397c0-5.2673 7-5.1829 7 0v22.397h4v-16.687c0-4.411 6.9717-4.3491 6.9717 0v16.687h2.1566c0.552 0 1-0.448 1-1v-27c0-0.441-0.287-0.828-0.708-0.957z"/>
                <path d="m0.367 19.721c-0.232 0.19-0.367 0.475-0.367 0.774v37c0 0.552 0.448 1 1 1h22v-56.99c-0.227 0-0.452 0.067-0.633 0.217zm19.197 12.771-4.982 0.018v15.042l-6.018-0.068v-14.985l-5 0.018v-6.021h5v-6h6.021l-0.018 6h4.997z"/>
            </g>
        </g>
    </g>
</svg>