<svg id="mouse" width="50" height="50">
    <path fill="white" opacity=".8" transform="scale(.1)"
          d="M346.7 44.6C321.5 15 283.1 0 232.5 0s-89 15-114.2 44.6c-25.4 29.8-29.2 64.7-29.2 82.8v210.2c0 18.1 3.8 53 29.2 82.8C143.5 450 181.9 465 232.5 465s89-15 114.2-44.6c25.4-29.8 29.2-64.6 29.2-82.8V127.4C375.9 109.3 372.1 74.4 346.7 44.6zM232.5 162c-10.5 0-19-8.5-19-19v-40.7c0-10.5 8.5-19 19-19s19 8.5 19 19V143C251.5 153.5 243 162 232.5 162zM360.9 337.6c0 18.8-6.2 112.4-128.4 112.4s-128.4-93.6-128.4-112.4V127.4c0-18.4 6-108.5 120.9-112.3v54c-15.1 3.4-26.5 17-26.5 33.2V143c0 16.2 11.4 29.7 26.5 33.2v61.6c0 4.1 3.4 7.5 7.5 7.5s7.5-3.4 7.5-7.5v-61.6c15.2-3.4 26.5-17 26.5-33.2v-40.7c0-16.2-11.3-29.7-26.5-33.2V15.1c115 3.8 120.9 93.9 120.9 112.3V337.6z"/>
</svg>