<svg viewBox="0 0 100 100" xmlns="http://www.w3.org/2000/svg">
    <g transform="translate(0 100.2)">
        <rect x=".45724" y="-99.743" width="99.286" height="99.286"
              style="fill:none;stroke-width:.91447;stroke:#000"/>
        <g aria-label="T">
            <path d="m24.337-11.034h-3.1836v-23.262h-8.7305v-2.8711h20.645v2.8711h-8.7305z"/>
        </g>
        <text x="687.85712" y="452.14285" style="fill:#000000;font-family:Arial;font-size:26.667px;letter-spacing:0px;line-height:1.25;word-spacing:0px" xml:space="preserve"><tspan x="687.85712" y="476.16296"/></text>
        <g aria-label="P">
            <path d="m73.74-11.034h-3.1836v-26.133h7.2461q1.6211 0 2.9883 0.19531 1.3867 0.19531 2.5391 0.60547 2.3438 0.83984 3.5547 2.5195 1.2109 1.6602 1.2109 4.1016 0 1.9922-0.80078 3.5156-0.78125 1.5039-2.2852 2.5195t-3.6719 1.543q-2.1484 0.50781-4.8828 0.50781-1.3086 0-2.7148-0.11719zm0-13.652q0.64453 0.07813 1.3477 0.11719 0.70312 0.03906 1.3281 0.03906 2.2461 0 3.8281-0.35156 1.582-0.35156 2.5781-1.0156 0.99609-0.68359 1.4453-1.6406 0.44922-0.97656 0.44922-2.207 0-1.5234-0.74219-2.5-0.72266-0.97656-2.0703-1.4844-0.83984-0.3125-1.9336-0.42969-1.0938-0.13672-2.5391-0.13672h-3.6914z"/>
        </g>
        <path d="m62.707-24.1a12.659 12.659 0 0 1-12.659 12.659 12.659 12.659 0 0 1-12.659-12.659 12.659 12.659 0 0 1 12.659-12.659 12.659 12.659 0 0 1 12.659 12.659z"
              style="fill:none;stroke-width:3;stroke:#000"/>
        <path d="m50.281-88.382-0.36142 76.564"
              style="fill:none;stroke-linejoin:bevel;stroke-width:3;stroke:#000"/>
        <path d="m42.95-79.672 7.375-9.375 7.375 9.375" style="fill:none;stroke-width:3;stroke:#000"/>
    </g>
</svg>