<svg viewBox="0 0 800 500" preserveAspectRatio="xMidYMid slice" xmlns="http://www.w3.org/2000/svg">
    <g>
        <path opacity=".7"
              d="m0 0.11523v500h800v-500zm371.02 204.14c9.401 0 17.689 1.2988 24.863 3.8965v18.74c-6.8446-3.9583-15.216-5.9375-25.111-5.9375-8.2878 0-15.049 2.702-20.285 8.1035-5.1953 5.3602-7.793 12.535-7.793 21.523 0 9.1124 2.329 16.163 6.9883 21.152 4.7005 4.9892 11.03 7.4824 18.988 7.4824 4.783 0 8.5751-0.68033 11.379-2.041v-17.316h-17.75v-15.957h37.729v44.592c-8.6588 4.9892-19.421 7.4844-32.285 7.4844-14.266 0-25.523-3.9371-33.77-11.812-8.2053-7.9167-12.309-18.802-12.309-32.656 0-13.937 4.4937-25.298 13.482-34.08 8.9887-8.7826 20.947-13.174 35.873-13.174zm-278.07 1.4844h32.285c9.8958 0 17.503 1.8149 22.822 5.4434s7.9785 8.7407 7.9785 15.338c0 4.783-1.6293 8.9694-4.8867 12.557-3.2162 3.5872-7.3388 6.0805-12.369 7.4824v0.24805c6.3086 0.78342 11.34 3.1124 15.092 6.9883 3.7934 3.8759 5.6894 8.5977 5.6894 14.164 0 8.1228-2.9069 14.576-8.7207 19.359-5.8138 4.7418-13.752 7.1113-23.812 7.1113h-34.078zm80.094 0h20.039v51.459c0 14.349 5.609 21.523 16.824 21.523 11.009 0 16.514-6.9271 16.514-20.781v-52.201h19.977v50.283c0 26.636-12.41 39.955-37.232 39.955-24.08 0-36.121-13.01-36.121-39.027zm92.588 0h19.977v72.488h32.842v16.203h-52.818zm174.41 0h23.689l31.543 88.691h-21.771l-6.3086-19.729h-31.543l-6.2461 19.729h-21.648zm66.303 0h31.666c21.523 0 32.285 8.0404 32.285 24.121 0 3.0924-0.47352 5.9588-1.4219 8.5976-0.94835 2.5977-2.2878 4.9479-4.0195 7.0508-1.7318 2.1029-3.8346 3.9178-6.3086 5.4434-2.4327 1.5256-5.1541 2.72-8.1641 3.5859v0.24805c1.3194 0.41232 2.597 1.0927 3.834 2.041 1.237 0.90712 2.4334 1.9798 3.5879 3.2168 1.1545 1.237 2.2465 2.5764 3.2774 4.0195 1.072 1.4019 2.0404 2.7838 2.9062 4.1445l16.762 26.223h-22.945l-13.793-22.822c-1.0308-1.7318-2.0204-3.278-2.9687-4.6387-0.94836-1.3607-1.9167-2.5145-2.9063-3.4629-0.94835-0.98958-1.9592-1.7318-3.0312-2.2266-1.0308-0.53603-2.1654-0.80469-3.4024-0.80469h-5.3809v33.955h-19.977zm82.629 0h19.979v88.691h-19.979zm62.84 0h23.688l31.543 88.691h-21.771l-6.3086-19.729h-31.543l-6.2461 19.729h-21.646zm-538.89 14.721v21.029h8.7832c4.1233 0 7.3607-0.98958 9.7109-2.9688 2.3915-2.0204 3.5859-4.7843 3.5859-8.2891 0-6.5148-4.8648-9.7715-14.596-9.7715zm413.4 0.24805v24.678h8.6602c4.2882 0 7.7305-1.237 10.328-3.7109 2.6389-2.5152 3.959-5.6289 3.959-9.3398 0-7.7517-4.6387-11.627-13.916-11.627zm-75.207 0.86524c-0.20616 2.5976-0.72222 5.174-1.5469 7.7305l-9.6484 30.059h22.699l-9.5254-29.811c-0.70096-2.2266-1.1958-4.8861-1.4844-7.9785zm211.77 0c-0.20616 2.5976-0.72222 5.174-1.5469 7.7305l-9.6484 30.059h22.699l-9.5254-29.811c-0.70096-2.2266-1.1958-4.8861-1.4844-7.9785zm-549.96 34.76v23.379h10.824c4.6181 0 8.2266-1.0727 10.824-3.2168 2.6389-2.1441 3.957-5.0723 3.957-8.7832 0-3.546-1.2988-6.3292-3.8965-8.3496-2.5564-2.0204-6.1437-3.0293-10.762-3.0293z"
              fill="#130c87" fill-rule="evenodd"/>
        <text x="91.286636" y="191.06499" fill="#ffffff" font-family="'Segoe Print'" font-size="24.35px" letter-spacing="0px" stroke-width=".84668" word-spacing="0px" style="line-height:1.25" xml:space="preserve"><tspan x="91.286636" y="191.06499" font-family="'Segoe Print'" font-size="24.35px" stroke-width=".84668">welcome to</tspan></text>
        <path d="m92.951 164.35h143.88l28.703 27.673h441.4" fill="none" stroke="#fff" stroke-linejoin="round"
              stroke-opacity=".94118" stroke-width=".5"/>
        <path d="m265.53 307.92h441.4" fill="none" stroke="#fff" stroke-opacity=".94118" stroke-width=".50545"/>
    </g>
</svg>
