<svg  style="opacity: .04" viewBox="0 0 700 700" xmlns="http://www.w3.org/2000/svg">
    <g transform="translate(0 189)">
        <path d="m493.93 92.867h-17.067v-25.6c0-5.12-3.413-8.533-8.533-8.533h-51.2c-5.12 0-8.533 3.413-8.533 8.533v25.6h-17.067c-5.12 0-8.533 3.413-8.533 8.533v136.53h-8.533v-25.6c0-5.12-3.413-8.533-8.533-8.533h-8.534v-8.533c0-5.12-3.413-8.533-8.533-8.533s-8.533 3.413-8.533 8.533v8.533h-8.534c-5.12 0-8.533 3.413-8.533 8.533v25.6h-25.6v-170.67c0-5.12-3.413-8.533-8.533-8.533h-25.6v-51.2c-1e-3 -5.121-3.414-8.534-8.534-8.534h-102.4c-5.12 0-8.533 3.413-8.533 8.533v51.2h-25.6c-5.12 0-8.533 3.413-8.533 8.533v221.87h-17.067v-25.6c0-5.12-3.413-8.533-8.533-8.533h-51.2c-5.12 0-8.533 3.413-8.533 8.533v25.6h-8.533c-5.12 0-8.533 3.413-8.533 8.533v204.8c0 5.12 3.413 8.533 8.533 8.533h477.87c5.12 0 8.533-3.413 8.533-8.533v-401.07c-1e-3 -5.12-3.415-8.533-8.535-8.533zm-68.266-17.067h34.133v17.067h-34.133v-17.067zm-85.334 145.07h17.067v17.067h-17.067v-17.067zm-213.33-145.07h25.6c5.12 0 8.533-3.413 8.533-8.533v-51.2h85.333v51.2c0 5.12 3.413 8.533 8.533 8.533h25.6v162.13h-17.067v-136.53c0-5.12-3.413-8.533-8.533-8.533s-8.533 3.413-8.533 8.533v136.53h-17.066v-136.53c0-5.12-3.413-8.533-8.533-8.533s-8.533 3.413-8.533 8.533v136.53h-17.067v-136.53c0-5.12-3.413-8.533-8.533-8.533s-8.534 3.413-8.534 8.533v187.73h-17.067v-187.73c0-5.12-3.413-8.533-8.533-8.533s-8.533 3.413-8.533 8.533v187.73h-17.067v-213.33zm-85.333 196.27h34.133v17.067h-34.133v-17.067zm-17.067 34.133h153.6v17.067h-59.733c-5.12 0-8.533 3.413-8.533 8.533v162.13h-85.334v-187.73zm102.4 34.133h51.2v17.067h-25.6c-5.12 0-8.533 3.413-8.533 8.533s3.413 8.533 8.533 8.533h25.6v17.067h-25.6c-5.12 0-8.533 3.413-8.533 8.533s3.413 8.533 8.533 8.533h25.6v17.067h-25.6c-5.12 0-8.533 3.413-8.533 8.533s3.413 8.533 8.533 8.533h25.6v17.068h-25.6c-5.12 0-8.533 3.413-8.533 8.533s3.413 8.533 8.533 8.533h25.6v17.067h-51.2v-153.6zm68.267-8.533v-76.8h187.73v238.93h-17.067v-213.33c0-5.12-3.413-8.533-8.533-8.533s-8.533 3.413-8.533 8.533v213.33h-17.067v-213.33c0-5.12-3.413-8.533-8.533-8.533s-8.533 3.413-8.533 8.533v213.33h-17.067v-213.33c0-5.12-3.413-8.533-8.533-8.533s-8.533 3.413-8.533 8.533v213.33h-17.067v-213.33c0-5.12-3.413-8.533-8.533-8.533s-8.533 3.413-8.533 8.533v213.33h-17.068v-213.33c0-5.12-3.413-8.533-8.533-8.533s-8.533 3.413-8.533 8.533v213.33h-17.067v-162.13zm290.13 162.13h-85.333v-384h85.333v384z"/>
        <path d="m425.67 331.8c-5.12 0-8.533 3.413-8.533 8.533v17.067c0 5.12 3.413 8.533 8.533 8.533s8.533-3.413 8.533-8.533v-17.067c0-5.12-3.413-8.533-8.533-8.533z"/>
        <path d="m425.67 383c-5.12 0-8.533 3.413-8.533 8.533v17.067c0 5.12 3.413 8.533 8.533 8.533s8.533-3.413 8.533-8.533v-17.067c0-5.12-3.413-8.533-8.533-8.533z"/>
        <path d="m425.67 434.2c-5.12 0-8.533 3.413-8.533 8.533v17.067c0 5.12 3.413 8.533 8.533 8.533s8.533-3.413 8.533-8.533v-17.067c0-5.12-3.413-8.533-8.533-8.533z"/>
        <path d="m425.67 280.6c-5.12 0-8.533 3.413-8.533 8.533v17.067c0 5.12 3.413 8.533 8.533 8.533s8.533-3.413 8.533-8.533v-17.067c0-5.12-3.413-8.533-8.533-8.533z"/>
        <path d="m425.67 127c-5.12 0-8.533 3.413-8.533 8.533v17.067c0 5.12 3.413 8.533 8.533 8.533s8.533-3.413 8.533-8.533v-17.067c0-5.12-3.413-8.533-8.533-8.533z"/>
        <path d="m425.67 178.2c-5.12 0-8.533 3.413-8.533 8.533v17.067c0 5.12 3.413 8.533 8.533 8.533s8.533-3.413 8.533-8.533v-17.067c0-5.12-3.413-8.533-8.533-8.533z"/>
        <path d="m425.67 229.4c-5.12 0-8.533 3.413-8.533 8.533v17.067c0 5.12 3.413 8.533 8.533 8.533s8.533-3.413 8.533-8.533v-17.067c0-5.12-3.413-8.533-8.533-8.533z"/>
        <path d="m459.8 331.8c-5.12 0-8.533 3.413-8.533 8.533v17.067c0 5.12 3.413 8.533 8.533 8.533s8.533-3.413 8.533-8.533v-17.067c0-5.12-3.413-8.533-8.533-8.533z"/>
        <path d="m459.8 434.2c-5.12 0-8.533 3.413-8.533 8.533v17.067c0 5.12 3.413 8.533 8.533 8.533s8.533-3.413 8.533-8.533v-17.067c0-5.12-3.413-8.533-8.533-8.533z"/>
        <path d="m459.8 178.2c-5.12 0-8.533 3.413-8.533 8.533v17.067c0 5.12 3.413 8.533 8.533 8.533s8.533-3.413 8.533-8.533v-17.067c0-5.12-3.413-8.533-8.533-8.533z"/>
        <path d="m459.8 127c-5.12 0-8.533 3.413-8.533 8.533v17.067c0 5.12 3.413 8.533 8.533 8.533s8.533-3.413 8.533-8.533v-17.067c0-5.12-3.413-8.533-8.533-8.533z"/>
        <path d="m459.8 280.6c-5.12 0-8.533 3.413-8.533 8.533v17.067c0 5.12 3.413 8.533 8.533 8.533s8.533-3.413 8.533-8.533v-17.067c0-5.12-3.413-8.533-8.533-8.533z"/>
        <path d="m459.8 383c-5.12 0-8.533 3.413-8.533 8.533v17.067c0 5.12 3.413 8.533 8.533 8.533s8.533-3.413 8.533-8.533v-17.067c0-5.12-3.413-8.533-8.533-8.533z"/>
        <path d="m459.8 229.4c-5.12 0-8.533 3.413-8.533 8.533v17.067c0 5.12 3.413 8.533 8.533 8.533s8.533-3.413 8.533-8.533v-17.067c0-5.12-3.413-8.533-8.533-8.533z"/>
        <path d="m50.2 425.67c-5.12 0-8.533 3.413-8.533 8.533v17.067c0 5.12 3.413 8.533 8.533 8.533s8.533-3.413 8.533-8.533v-17.067c0-5.12-3.413-8.533-8.533-8.533z"/>
        <path d="m50.2 323.27c-5.12 0-8.533 3.413-8.533 8.533v17.067c0 5.12 3.413 8.533 8.533 8.533s8.533-3.413 8.533-8.533v-17.067c0-5.12-3.413-8.533-8.533-8.533z"/>
        <path d="m50.2 374.47c-5.12 0-8.533 3.413-8.533 8.533v17.067c0 5.12 3.413 8.533 8.533 8.533s8.533-3.413 8.533-8.533v-17.067c0-5.12-3.413-8.533-8.533-8.533z"/>
        <path d="m84.333 374.47c-5.12 0-8.533 3.413-8.533 8.533v17.067c0 5.12 3.413 8.533 8.533 8.533s8.533-3.413 8.533-8.533v-17.067c1e-3 -5.12-3.413-8.533-8.533-8.533z"/>
        <path d="m84.333 425.67c-5.12 0-8.533 3.413-8.533 8.533v17.067c0 5.12 3.413 8.533 8.533 8.533s8.533-3.413 8.533-8.533v-17.067c1e-3 -5.12-3.413-8.533-8.533-8.533z"/>
        <path d="m84.333 323.27c-5.12 0-8.533 3.413-8.533 8.533v17.067c0 5.12 3.413 8.533 8.533 8.533s8.533-3.413 8.533-8.533v-17.067c1e-3 -5.12-3.413-8.533-8.533-8.533z"/>
        <path d="m186.73 75.8c5.12 0 8.533-3.413 8.533-8.533v-25.6c0-5.12-3.413-8.533-8.533-8.533s-8.533 3.413-8.533 8.533v25.6c0 5.12 3.413 8.533 8.533 8.533z"/>
        <path d="m220.87 75.8c5.12 0 8.533-3.413 8.533-8.533v-25.6c0-5.12-3.413-8.533-8.533-8.533s-8.533 3.413-8.533 8.533v25.6c-1e-3 5.12 3.413 8.533 8.533 8.533z"/>
    </g>
</svg>